<svg width="1287" height="900" viewBox="0 0 1287 900" fill="none" xmlns="http://www.w3.org/2000/svg">
<g filter="url(#filter0_dd_4_155)">
<path fill-rule="evenodd" clip-rule="evenodd" d="M615.463 -390C703.354 -390 774.606 -318.777 774.606 -230.926C774.606 -143.067 703.354 -71.8478 615.463 -71.8478C604.141 -71.8478 593.097 -73.0408 582.441 -75.2873L425.832 160.328C477.997 191.59 516.653 243.059 530.963 303.913H831.788C854.941 224.281 928.467 166.072 1015.6 166.072C1121.31 166.072 1207 251.731 1207 357.392C1207 463.061 1121.31 548.72 1015.6 548.72C983.007 548.72 952.321 540.57 925.46 526.204L777.431 748.913C857.816 801.358 910.952 892.045 910.952 995.149C910.952 1157.44 779.337 1289 616.986 1289C454.635 1289 323.015 1157.44 323.015 995.149C323.015 832.864 454.635 701.302 616.986 701.302C643.963 701.302 670.084 704.951 694.895 711.756L858.137 466.163C843.223 444.631 832.613 419.896 827.557 393.193H534.051C516.432 501.833 422.171 584.784 308.508 584.784C182.306 584.784 80 482.52 80 356.365C80 230.215 182.306 127.951 308.508 127.951C318.776 127.951 328.886 128.636 338.794 129.949L503.517 -117.875C474.377 -146.704 456.324 -186.704 456.324 -230.926C456.324 -318.777 527.576 -390 615.463 -390Z" fill="#F0F0F3"/>
</g>
<defs>
<filter id="filter0_dd_4_155" x="0" y="-470" width="1287" height="1839" filterUnits="userSpaceOnUse" color-interpolation-filters="sRGB">
<feFlood flood-opacity="0" result="BackgroundImageFix"/>
<feColorMatrix in="SourceAlpha" type="matrix" values="0 0 0 0 0 0 0 0 0 0 0 0 0 0 0 0 0 0 127 0" result="hardAlpha"/>
<feOffset dx="20" dy="20"/>
<feGaussianBlur stdDeviation="30"/>
<feColorMatrix type="matrix" values="0 0 0 0 0.682353 0 0 0 0 0.682353 0 0 0 0 0.752941 0 0 0 0.4 0"/>
<feBlend mode="normal" in2="BackgroundImageFix" result="effect1_dropShadow_4_155"/>
<feColorMatrix in="SourceAlpha" type="matrix" values="0 0 0 0 0 0 0 0 0 0 0 0 0 0 0 0 0 0 127 0" result="hardAlpha"/>
<feOffset dx="-20" dy="-20"/>
<feGaussianBlur stdDeviation="30"/>
<feColorMatrix type="matrix" values="0 0 0 0 1 0 0 0 0 1 0 0 0 0 1 0 0 0 1 0"/>
<feBlend mode="normal" in2="effect1_dropShadow_4_155" result="effect2_dropShadow_4_155"/>
<feBlend mode="normal" in="SourceGraphic" in2="effect2_dropShadow_4_155" result="shape"/>
</filter>
</defs>
</svg>
