<svg width="183" height="83" viewBox="0 0 183 83" fill="none" xmlns="http://www.w3.org/2000/svg">
<path fill-rule="evenodd" clip-rule="evenodd" d="M53.9465 22.163C61.9735 28.2867 67.1546 37.9507 67.1546 48.8262C67.1546 67.3378 52.1481 82.3443 33.6366 82.3443C31.4664 82.3443 29.3442 82.138 27.2889 81.7441V69.7111C29.2976 70.3208 31.4287 70.6486 33.6366 70.6486C45.6888 70.6486 55.4589 60.8784 55.4589 48.8262C55.4589 41.6559 52.0006 35.2937 46.6611 31.3156C50.8316 30.4357 53.955 26.8383 53.955 22.5334C53.955 22.4093 53.9517 22.2859 53.9465 22.163Z" fill="#0F4C90"/>
<path fill-rule="evenodd" clip-rule="evenodd" d="M23.9824 68.4026V80.9331C10.1769 76.788 0.118286 63.9817 0.118286 48.8262C0.118286 37.7769 5.46568 27.9767 13.7131 21.8715C13.6487 22.299 13.6148 22.7361 13.6148 23.1809C13.6148 27.188 16.3212 30.5821 20.0592 31.7423C15.0351 35.7399 11.814 41.9067 11.814 48.8262C11.814 57.4124 16.7726 64.8403 23.9824 68.4026Z" fill="#A4D8E6"/>
<path fill-rule="evenodd" clip-rule="evenodd" d="M32.7874 0C35.4661 0 37.6378 2.17165 37.6378 4.85031C37.6378 7.5292 35.4661 9.70073 32.7874 9.70073C32.4423 9.70073 32.1057 9.66435 31.7809 9.59586L27.0077 16.78C28.5976 17.7332 29.7758 19.3025 30.2119 21.158H39.3806C40.0863 18.7299 42.3272 16.9551 44.9829 16.9551C48.2047 16.9551 50.8165 19.5669 50.8165 22.7886C50.8165 26.0105 48.2047 28.6224 44.9829 28.6224C43.9895 28.6224 43.0543 28.3739 42.2356 27.9358L37.7239 34.7264C40.1739 36.3255 41.7934 39.0906 41.7934 42.2344C41.7934 47.1827 37.782 51.1941 32.8338 51.1941C27.8856 51.1941 23.874 47.1827 23.874 42.2344C23.874 37.2862 27.8856 33.2747 32.8338 33.2747C33.656 33.2747 34.4521 33.386 35.2083 33.5935L40.1837 26.1051C39.7291 25.4486 39.4058 24.6944 39.2516 23.8802H30.3061C29.769 27.1927 26.8961 29.722 23.4318 29.722C19.5854 29.722 16.4673 26.6039 16.4673 22.7573C16.4673 18.9109 19.5854 15.7928 23.4318 15.7928C23.7448 15.7928 24.0529 15.8137 24.3549 15.8537L29.3754 8.29733C28.4873 7.4183 27.9371 6.19867 27.9371 4.85031C27.9371 2.17165 30.1087 0 32.7874 0Z" fill="#A4D8E6"/>
<path d="M163.94 47.1652V27.6641H171.634C173.113 27.6641 174.373 27.9466 175.414 28.5115C176.456 29.0702 177.249 29.8478 177.795 30.8444C178.347 31.8347 178.623 32.9774 178.623 34.2724C178.623 35.5674 178.344 36.71 177.785 37.7003C177.227 38.6906 176.417 39.4619 175.357 40.0142C174.304 40.5664 173.028 40.8426 171.529 40.8426H166.626V37.5384H170.863C171.656 37.5384 172.31 37.4019 172.824 37.129C173.345 36.8497 173.732 36.4656 173.986 35.9768C174.246 35.4817 174.377 34.9135 174.377 34.2724C174.377 33.6249 174.246 33.0599 173.986 32.5774C173.732 32.0886 173.345 31.7109 172.824 31.4443C172.304 31.1714 171.644 31.0349 170.844 31.0349H168.063V47.1652H163.94Z" fill="#434242"/>
<path d="M145.287 31.0634V27.6641H161.303V31.0634H155.332V47.1652H151.257V31.0634H145.287Z" fill="#434242"/>
<path d="M126.023 47.1652V27.6641H130.146V35.7102H138.516V27.6641H142.63V47.1652H138.516V39.1096H130.146V47.1652H126.023Z" fill="#434242"/>
<path d="M109.605 47.1652V27.6641H122.745V31.0634H113.728V35.7102H122.069V39.1096H113.728V43.7659H122.784V47.1652H109.605Z" fill="#434242"/>
<path d="M107.103 43.8706L106.865 51.7739H102.942V47.1652H101.571V43.8706H107.103ZM88.3162 47.1652V27.6641H92.2774V43.8516H100.39V27.6641H104.399V47.1652H88.3162Z" fill="#434242"/>
<path d="M167.999 76.1246V56.6234H175.693C177.172 56.6234 178.432 56.9059 179.473 57.4709C180.514 58.0295 181.308 58.8071 181.854 59.8038C182.406 60.7941 182.682 61.9367 182.682 63.2317C182.682 64.5267 182.403 65.6694 181.844 66.6597C181.286 67.65 180.476 68.4212 179.416 68.9735C178.362 69.5258 177.086 69.8019 175.588 69.8019H170.684V66.4978H174.922C175.715 66.4978 176.369 66.3613 176.883 66.0883C177.404 65.809 177.791 65.425 178.045 64.9362C178.305 64.441 178.435 63.8729 178.435 63.2317C178.435 62.5842 178.305 62.0192 178.045 61.5368C177.791 61.048 177.404 60.6703 176.883 60.4037C176.363 60.1307 175.702 59.9942 174.903 59.9942H172.122V76.1246H167.999Z" fill="#434242"/>
<path d="M160.812 76.1246L154.547 67.8118H153.137V76.1246H149.014V56.6234H153.137V64.4125H153.966L160.441 56.6234H165.573L157.965 65.6694L165.926 76.1246H160.812Z" fill="#434242"/>
<path d="M145.96 66.374C145.96 68.5006 145.557 70.3098 144.751 71.8016C143.951 73.2934 142.859 74.4328 141.475 75.22C140.098 76.0008 138.549 76.3912 136.829 76.3912C135.096 76.3912 133.54 75.9976 132.163 75.2105C130.785 74.4233 129.697 73.2838 128.897 71.7921C128.097 70.3003 127.697 68.4943 127.697 66.374C127.697 64.2474 128.097 62.4382 128.897 60.9464C129.697 59.4547 130.785 58.3184 132.163 57.5375C133.54 56.7504 135.096 56.3568 136.829 56.3568C138.549 56.3568 140.098 56.7504 141.475 57.5375C142.859 58.3184 143.951 59.4547 144.751 60.9464C145.557 62.4382 145.96 64.2474 145.96 66.374ZM141.78 66.374C141.78 64.9965 141.574 63.8348 141.161 62.8889C140.755 61.9431 140.18 61.2258 139.438 60.737C138.695 60.2482 137.825 60.0038 136.829 60.0038C135.832 60.0038 134.962 60.2482 134.22 60.737C133.477 61.2258 132.899 61.9431 132.487 62.8889C132.08 63.8348 131.877 64.9965 131.877 66.374C131.877 67.7515 132.08 68.9132 132.487 69.8591C132.899 70.8049 133.477 71.5223 134.22 72.0111C134.962 72.4999 135.832 72.7443 136.829 72.7443C137.825 72.7443 138.695 72.4999 139.438 72.0111C140.18 71.5223 140.755 70.8049 141.161 69.8591C141.574 68.9132 141.78 67.7515 141.78 66.374Z" fill="#434242"/>
<path d="M108.322 56.6234H112.436V68.8878H112.598L121.025 56.6234H124.633V76.1246H120.51V63.8507H120.368L111.893 76.1246H108.322V56.6234Z" fill="#434242"/>
<path d="M88.3162 76.1246V56.6234H92.4392V64.6695H100.809V56.6234H104.923V76.1246H100.809V68.0689H92.4392V76.1246H88.3162Z" fill="#434242"/>
</svg>
